<svg xmlns="http://www.w3.org/2000/svg" version="1.1" xmlns:xlink="http://www.w3.org/1999/xlink" xmlns:svgjs="http://svgjs.dev/svgjs" width="1920" height="1080" preserveAspectRatio="none" viewBox="0 0 1920 1080"><g mask="url(&quot;#SvgjsMask1172&quot;)" fill="none"><rect width="1920" height="1080" x="0" y="0" fill="url(&quot;#SvgjsLinearGradient1173&quot;)"></rect><path d="M1558.62 465a90.99 90.99 0 1 0 171.84-59.91z" stroke="#e73635"></path><path d="M854.51 937.93L871.6 937.93L871.6 955.02L854.51 955.02z" stroke="#037b0b"></path><path d="M1527.19 469.58L1570.49 469.58L1570.49 512.88L1527.19 512.88z" stroke="#d3b714"></path><path d="M-51.06 72.63 a84.91 84.91 0 1 0 169.82 0 a84.91 84.91 0 1 0 -169.82 0z" fill="#037b0b"></path><path d="M1724.1 735.86L1726.36 735.86L1726.36 738.12L1724.1 738.12z" fill="#037b0b"></path><path d="M1254.35 789.48 a94.24 94.24 0 1 0 188.48 0 a94.24 94.24 0 1 0 -188.48 0z" stroke="#d3b714"></path><path d="M1016.58 591.9L1085.36 591.9L1085.36 660.68L1016.58 660.68z" fill="#037b0b"></path><path d="M1298.15 658.55 a78.68 78.68 0 1 0 157.36 0 a78.68 78.68 0 1 0 -157.36 0z" stroke="#e73635"></path><path d="M163.91 60.44L245.4 60.44L245.4 141.93L163.91 141.93z" stroke="#e73635"></path><path d="M3.31 615.27L32.28 615.27L32.28 644.24L3.31 644.24z" fill="#d3b714"></path><path d="M1264.02 455.48L1300.95 455.48L1300.95 511.57L1264.02 511.57z" stroke="#e73635"></path><path d="M496.36 111.15 a43.68 43.68 0 1 0 87.36 0 a43.68 43.68 0 1 0 -87.36 0z" stroke="#037b0b"></path><path d="M1774.05 245.72L1806.61 245.72L1806.61 283.43L1774.05 283.43z" fill="#e73635"></path><path d="M85.9 1071.08 a27.96 27.96 0 1 0 55.92 0 a27.96 27.96 0 1 0 -55.92 0z" stroke="#037b0b"></path><path d="M1281.61 510.5L1354.97 510.5L1354.97 530.54L1281.61 530.54z" fill="#d3b714"></path><path d="M564.31 629.41L590.68 629.41L590.68 655.78L564.31 655.78z" stroke="#037b0b"></path><path d="M1349.26 103.02L1442.7 103.02L1442.7 196.46L1349.26 196.46z" stroke="#037b0b"></path><path d="M729.1 1030.6a79.91 79.91 0 1 0 88.53-133.06z" stroke="#d3b714"></path><path d="M177.44 251.62L245.2 251.62L245.2 319.38L177.44 319.38z" fill="#d3b714"></path><path d="M1394.33 309.84 a58.63 58.63 0 1 0 117.26 0 a58.63 58.63 0 1 0 -117.26 0z" stroke="#e73635"></path><path d="M1810.62 588.83 a59.04 59.04 0 1 0 118.08 0 a59.04 59.04 0 1 0 -118.08 0z" fill="#d3b714"></path><path d="M74.44 512.16L120.03 512.16L120.03 580.23L74.44 580.23z" stroke="#e73635"></path><path d="M1150.92 942.27L1178.15 942.27L1178.15 969.5L1150.92 969.5z" stroke="#037b0b"></path></g><defs><mask id="SvgjsMask1172"><rect width="1920" height="1080" fill="#ffffff"></rect></mask><linearGradient x1="10.94%" y1="-19.44%" x2="89.06%" y2="119.44%" gradientUnits="userSpaceOnUse" id="SvgjsLinearGradient1173"><stop stop-color="#0e2a47" offset="0"></stop><stop stop-color="rgba(0, 69, 158, 1)" offset="1"></stop></linearGradient></defs></svg>